#!OML:ASF X:\für Bonn\!DataBase\2005_08_10_Bjorn_Final\c3d\bjorn.ASF
:FULLY-SPECIFIED
:DEGREES
142
root 0.893421 17.8977 -0.0350473 -208.365 -6.32365 180.95
lowerback 3.72225 4.26331 3.6967
upperback 13.1747 4.00185 -0.587258
thorax 12.4966 1.64763 -2.55825
lowerneck 2.03997 4.88613 -1.51965
upperneck 3.8661 6.36965 -7.93705
head 1.0924 2.93145 -2.21365
rclavicle -9.59757e-014 3.26007e-014
rhumerus -23.7235 17.6871 -52.8778
rradius 83.2513
rwrist -9.85116
rhand -2.39679 15.8893
rfingers 7.12502
rthumb 23.2928 -12.7216
lclavicle -9.59757e-014 3.26007e-014
lhumerus -6.4342 -15.248 37.1629
lradius 93.8995
lwrist -21.5301
lhand -56.2699 -32.7879
lfingers 7.12502
lthumb -28.5941 -4.95508
rfemur 13.7613 1.1498 17.6013
rtibia 41.1882
rfoot -21.0441 24.4334
rtoes -7.04002
lfemur -34.9216 5.10618 -21.0091
ltibia 68.528
lfoot -3.26932 3.8566
ltoes -22.0547
143
root 0.882571 17.9516 0.0597861 -207.498 -6.68426 181.159
lowerback 3.96142 4.12934 3.39292
upperback 13.1195 3.83277 -0.523969
thorax 12.2308 1.52722 -2.34745
lowerneck 1.34109 4.84534 -1.78177
upperneck 3.97894 6.35602 -8.01831
head 1.24132 2.89947 -2.17729
rclavicle -3.23522e-014 3.33958e-014
rhumerus -25.2987 16.9295 -55.01
rradius 80.9609
rwrist -8.94606
rhand -2.71281 16.6549
rfingers 7.12502
rthumb 22.9896 -11.9942
lclavicle -3.23522e-014 3.33958e-014
lhumerus -6.58039 -16.683 38.3296
lradius 92.8989
lwrist -21.71
lhand -56.3705 -32.9194
lfingers 7.12502
lthumb -28.6903 -5.10285
rfemur 12.6397 1.00997 17.7112
rtibia 40.9709
rfoot -20.8978 23.8822
rtoes -8.04769
lfemur -34.5602 4.77401 -20.5506
ltibia 69.7764
lfoot -3.46586 4.9679
ltoes -20.8767
144
root 0.871024 18.0061 0.155858 -206.623 -7.00366 181.33
lowerback 4.2329 4.01566 3.09017
upperback 13.0486 3.69454 -0.488107
thorax 11.9355 1.42483 -2.16493
lowerneck 0.694824 4.79421 -1.95073
upperneck 4.0843 6.33159 -8.0996
head 1.38268 2.86506 -2.15941
rclavicle 3.95581e-014 -1.19271e-014
rhumerus -26.7201 15.9866 -57.1259
rradius 78.6467
rwrist -8.23885
rhand -2.9722 17.3208
rfingers 7.12502
rthumb 22.7406 -11.359
lclavicle 3.95581e-014 -1.19271e-014
lhumerus -6.69046 -18.0981 39.4272
lradius 91.829
lwrist -21.9132
lhand -56.501 -32.979
lfingers 7.12502
lthumb -28.815 -5.18358
rfemur 11.4916 0.87527 17.7744
rtibia 40.7625
rfoot -20.7517 23.35
rtoes -9.03836
lfemur -34.1871 4.45011 -20.0792
ltibia 70.9308
lfoot -3.54691 5.82191
ltoes -20.1071
145
root 0.85625 18.0601 0.254696 -205.692 -7.24652 181.515
lowerback 4.4851 3.91636 2.88184
upperback 12.9567 3.57806 -0.469056
thorax 11.6427 1.34695 -2.04885
lowerneck 0.0787764 4.74366 -2.13354
upperneck 4.16172 6.30771 -8.11144
head 1.50725 2.83444 -2.1179
rclavicle -5.24792e-014 1.35174e-014
rhumerus -27.9698 14.919 -59.1884
rradius 76.4041
rwrist -7.68848
rhand -3.29464 17.7127
rfingers 7.12502
rthumb 22.4312 -11.0048
lclavicle -5.24792e-014 1.35174e-014
lhumerus -6.75341 -19.4438 40.4722
lradius 90.6992
lwrist -22.1069
lhand -56.6282 -32.9674
lfingers 7.12502
lthumb -28.9364 -5.19277
rfemur 10.2505 0.763987 17.8559
rtibia 40.5806
rfoot -20.5213 22.9
rtoes -9.76811
lfemur -33.8547 4.15881 -19.5417
ltibia 72.0065
lfoot -3.67387 6.46821
ltoes -20.6236
146
root 0.840048 18.1154 0.353701 -204.655 -7.42536 181.631
lowerback 4.65472 3.84519 2.66254
upperback 12.8218 3.514 -0.490458
thorax 11.3567 1.30203 -1.96222
lowerneck -0.462396 4.67356 -2.35353
upperneck 4.19387 6.25266 -8.03027
head 1.59847 2.79423 -2.04247
rclavicle -1.64494e-014 7.95139e-015
rhumerus -29.1164 13.8558 -61.2113
rradius 74.1992
rwrist -7.13349
rhand -3.97017 18.0019
rfingers 7.12502
rthumb 21.7826 -10.7923
lclavicle -1.64494e-014 7.95139e-015
lhumerus -6.77409 -20.7761 41.4536
lradius 89.502
lwrist -22.313
lhand -56.7538 -32.9474
lfingers 7.12502
lthumb -29.0564 -5.19334
rfemur 8.86266 0.693551 17.8707
rtibia 40.4499
rfoot -20.3071 22.4877
rtoes -10.3513
lfemur -33.5606 3.89148 -19.0263
ltibia 72.993
lfoot -3.84031 6.87225
ltoes -21.7505
147
root 0.823265 18.1676 0.45467 -203.566 -7.59268 181.673
lowerback 4.82241 3.79691 2.41945
upperback 12.658 3.49053 -0.561732
thorax 11.0441 1.28062 -1.91314
lowerneck -0.817956 4.57612 -2.54002
upperneck 4.05028 6.1416 -7.90851
head 1.59877 2.74122 -1.96567
rclavicle -3.67255e-014 1.59028e-015
rhumerus -30.1777 12.6796 -63.2116
rradius 71.9892
rwrist -6.50176
rhand -4.91832 18.3709
rfingers 7.12502
rthumb 20.8719 -10.5263
lclavicle -3.67255e-014 1.59028e-015
lhumerus -6.69958 -22.1268 42.3093
lradius 88.2438
lwrist -22.3825
lhand -56.821 -32.8462
lfingers 7.12502
lthumb -29.1205 -5.10328
rfemur 7.3985 0.662042 17.8095
rtibia 40.3599
rfoot -19.978 22.1445
rtoes -10.2567
lfemur -33.2623 3.62828 -18.5586
ltibia 73.8824
lfoot -3.85692 6.96637
ltoes -22.0284
148
root 0.806341 18.2174 0.556966 -202.46 -7.76647 181.574
lowerback 5.01482 3.77157 2.06709
upperback 12.4873 3.50111 -0.681246
thorax 10.707 1.26815 -1.85455
lowerneck -1.14474 4.46004 -2.65708
upperneck 3.8871 6.00332 -7.82054
head 1.59126 2.6767 -1.91344
rclavicle 3.17062e-014 -1.59028e-014
rhumerus -31.094 11.3235 -65.1211
rradius 69.7472
rwrist -5.92194
rhand -5.80847 18.9301
rfingers 7.12502
rthumb 20.0165 -10.059
lclavicle 3.17062e-014 -1.59028e-014
lhumerus -6.56256 -23.4404 43.0905
lradius 86.9435
lwrist -22.3686
lhand -56.6682 -32.5774
lfingers 7.12502
lthumb -28.9747 -4.80932
rfemur 5.91542 0.681931 17.6048
rtibia 40.2866
rfoot -19.634 21.8122
rtoes -10.0447
lfemur -32.9271 3.35794 -18.2217
ltibia 74.6664
lfoot -3.75028 6.73124
ltoes -21.6318
149
root 0.789115 18.2703 0.659727 -201.356 -7.92326 181.347
lowerback 5.21927 3.77552 1.60795
upperback 12.3177 3.54845 -0.814834
thorax 10.3604 1.26428 -1.7507
lowerneck -1.42951 4.32555 -2.8317
upperneck 3.73542 5.83744 -7.70993
head 1.57676 2.59753 -1.84578
rclavicle -5.98342e-014 3.49861e-014
rhumerus -31.8574 9.82576 -66.8694
rradius 67.531
rwrist -5.36867
rhand -6.46662 19.5062
rfingers 7.12502
rthumb 19.3837 -9.54764
lclavicle -5.98342e-014 3.49861e-014
lhumerus -6.40457 -24.8111 43.7977
lradius 85.6124
lwrist -22.1862
lhand -56.4529 -32.1997
lfingers 7.12502
lthumb -28.769 -4.39641
rfemur 4.46964 0.779023 17.2787
rtibia 40.1711
rfoot -19.1686 21.4822
rtoes -9.22472
lfemur -32.542 3.09967 -18.0035
ltibia 75.3244
lfoot -3.48197 6.23466
ltoes -21.4695
150
root 0.77043 18.3263 0.763435 -200.268 -8.04522 181.088
lowerback 5.43908 3.79342 1.13412
upperback 12.1432 3.60963 -0.941832
thorax 10.0005 1.26661 -1.63186
lowerneck -1.7119 4.17706 -2.97698
upperneck 3.68119 5.65735 -7.65705
head 1.59668 2.50458 -1.80236
rclavicle 1.60022e-014 1.11319e-014
rhumerus -32.5049 8.23128 -68.4203
rradius 65.384
rwrist -4.8307
rhand -6.84405 20.0175
rfingers 7.12502
rthumb 19.0208 -9.07248
lclavicle 1.60022e-014 1.11319e-014
lhumerus -6.22996 -26.2216 44.4202
lradius 84.2586
lwrist -21.791
lhand -56.1105 -31.6082
lfingers 7.12502
lthumb -28.4419 -3.74982
rfemur 3.08164 0.926561 16.9356
rtibia 39.9921
rfoot -18.7418 21.1132
rtoes -8.55881
lfemur -32.0918 2.84304 -17.804
ltibia 75.8288
lfoot -2.94859 5.51935
ltoes -21.3987
151
root 0.749582 18.3889 0.867292 -199.182 -8.1117 180.824
lowerback 5.63578 3.81912 0.725462
upperback 11.9763 3.67628 -1.09959
thorax 9.67369 1.27988 -1.58085
lowerneck -1.99597 4.03353 -3.09783
upperneck 3.63673 5.4861 -7.54763
head 1.61939 2.41873 -1.74496
rclavicle -4.47266e-015 4.77083e-015
rhumerus -33.0675 6.61573 -69.8758
rradius 63.442
rwrist -4.39694
rhand -7.02874 20.2413
rfingers 7.12502
rthumb 18.8432 -8.86603
lclavicle -4.47266e-015 4.77083e-015
lhumerus -6.01889 -27.6275 44.8962
lradius 82.926
lwrist -21.2103
lhand -55.668 -30.8565
lfingers 7.12502
lthumb -28.0189 -2.92824
rfemur 1.735 1.1794 16.621
rtibia 39.7373
rfoot -18.2681 20.6886
rtoes -7.76219
lfemur -31.5647 2.59894 -17.5969
ltibia 76.151
lfoot -2.28957 4.52741
ltoes -21.7747
152
root 0.72576 18.4521 0.97096 -198.054 -8.12559 180.564
lowerback 5.77711 3.83884 0.357629
upperback 11.7922 3.73688 -1.26195
thorax 9.36507 1.29727 -1.55491
lowerneck -2.26248 3.89387 -3.2
upperneck 3.57815 5.31841 -7.41978
head 1.63499 2.33694 -1.68546
rclavicle 7.95139e-016 -1.19271e-014
rhumerus -33.4813 5.14906 -71.2459
rradius 61.6193
rwrist -4.25356
rhand -7.12563 20.1915
rfingers 7.12502
rthumb 18.75 -8.92479
lclavicle 7.95139e-016 -1.19271e-014
lhumerus -5.84583 -28.9558 45.3641
lradius 81.6324
lwrist -20.5328
lhand -55.1708 -30.0563
lfingers 7.12502
lthumb -27.5435 -2.05132
rfemur 0.377489 1.50639 16.3221
rtibia 39.4099
rfoot -17.8462 20.1684
rtoes -7.20795
lfemur -31.0213 2.30405 -17.3687
ltibia 76.2741
lfoot -1.60946 3.42969
ltoes -21.6928
